<?xml version="1.0" encoding="utf-8"?>
<!-- Generator: Adobe Illustrator 23.0.1, SVG Export Plug-In . SVG Version: 6.00 Build 0)  -->
<svg version="1.1" id="Layer_1" focusable="false" xmlns="http://www.w3.org/2000/svg" xmlns:xlink="http://www.w3.org/1999/xlink"
	 x="0px" y="0px" viewBox="0 0 448 512" style="enable-background:new 0 0 448 512;" xml:space="preserve">
<style type="text/css">
	.st0{fill:#FCEA4A;enable-background:new    ;}
	.st1{fill:#227AEB;}
</style>
<g>
	<path class="st0" d="M222.2,269.1c15.5-7.7,30.6-16.3,45.2-25.6c-9.6-5.6-19.5-11-29.7-16.1c-39.8-19.8-73.7-44.1-100.8-72.2
		c-17.2-17.7-32-37.6-44-59.1H416V31H67.6C66,24.3,65,18.5,64.3,13.8C63.1,5.8,56.3-0.1,48.3,0L16,0.1C7.2,0.1,0,7.3,0,16.1
		c0,0.7,0,1.3,0.1,2c2.3,18.8,8.6,50.7,25.6,87.4c15.8,33.9,37.1,65,63,92c30.6,32.2,68.3,60.1,112.1,82.9
		C207.7,276.6,214.8,272.8,222.2,269.1L222.2,269.1z M447.9,494c-2.4-18.8-8.7-50.7-25.8-87.4c-16-34-37.4-65.1-63.5-92.1
		c-9.5-9.9-19.5-19.3-30-28.1c-18.7,13.2-38.2,25-58.5,35.6c5.7,4.2,11.2,8.6,16.5,13.1H96v48h236.7c11.4,14.8,21.2,30.7,29.3,47.5
		c10.4,21.4,17.6,44.2,21.3,67.8c1.2,7.9,7.9,13.8,15.9,13.8h32.7c8.8,0.1,16.1-7,16.1-15.9C448,495.4,448,494.7,447.9,494z"/>
	<path class="st1" d="M447.9,18c-2.4,18.8-8.7,50.7-25.7,87.4c-15.9,33.9-37.2,65-63.2,92.1c-32.6,34.2-73.2,63.5-120.6,87.1
		C160.4,323.4,117.2,373,93.1,416h261.4c2.7,4.8,5.2,9.6,7.5,14.5c7.7,15.8,13.6,32.4,17.7,49.5H67.9c-1.7,7.1-2.8,13.3-3.5,18.2
		c-1.1,7.9-7.9,13.8-15.9,13.8H16.1C7.3,512.1,0,505,0,496.1c0-0.7,0-1.4,0.1-2.1c2.3-18.8,8.7-50.7,25.7-87.4
		c15.9-33.9,37.2-65,63.2-92.1c32.6-34.2,73.2-63.5,120.6-87.1c32.2-16,58.5-33.9,79.9-52.4H157.9c-7.4-6.4-14.4-13-21-19.9
		c-8.6-8.9-16.6-18.3-23.9-28.1h221.7c35.4-47.2,45.8-91.6,48.9-113.2C384.8,5.9,391.5,0,399.5,0h32.4c8.8-0.1,16,7.1,16.1,15.9
		C448,16.6,448,17.3,447.9,18L447.9,18z"/>
</g>
</svg>
