<svg width="69" height="67" viewBox="0 0 69 67" fill="none" xmlns="http://www.w3.org/2000/svg">
<path d="M14.3089 49.8212C18.022 49.8212 21.032 46.8107 21.032 43.097C21.032 39.3832 18.022 36.3727 14.3089 36.3727C10.5958 36.3727 7.58582 39.3832 7.58582 43.097C7.58582 46.8107 10.5958 49.8212 14.3089 49.8212Z" fill="#444444" stroke="white" stroke-width="4.71281" stroke-miterlimit="10"/>
<path d="M12.4774 8H37.5166C38.8788 8 40 8.82764 40 9.8412V23.7072C40 24.7207 38.8849 25.5484 37.5166 25.5484H17.6492L11.9952 31V25.5124C10.862 25.3445 10 24.5948 10 23.7072V9.8352C9.994 8.82764 11.1091 8 12.4774 8Z" fill="white" stroke="#181818" stroke-width="2.61823" stroke-miterlimit="10"/>
<path d="M60.5226 2H35.4834C34.1212 2 33 2.82764 33 3.8412V17.7072C33 18.7207 34.1151 19.5484 35.4834 19.5484H55.3508L61.0048 25V19.5124C62.138 19.3445 63 18.5948 63 17.7072V3.8412C63.006 2.82764 61.8909 2 60.5226 2Z" fill="white" stroke="#181818" stroke-width="2.61823" stroke-miterlimit="10"/>
<path d="M22.412 52.0239C20.1134 52.0239 17.9367 52.0239 16.2064 52.0239C16.2064 52.0239 14.6944 52.0239 12.4161 52.0239C10.6859 52.0239 8.50914 52.0239 6.21061 52.0239C0.887955 52.0239 0 59.3673 0 59.3673V67H12.4111H16.2014H28.6175V59.3673C28.6175 59.3673 27.7296 52.0239 22.412 52.0239Z" fill="#227AEB"/>
<path d="M54.7844 49.8212C58.4974 49.8212 61.5075 46.8107 61.5075 43.097C61.5075 39.3832 58.4974 36.3727 54.7844 36.3727C51.0713 36.3727 48.0613 39.3832 48.0613 43.097C48.0613 46.8107 51.0713 49.8212 54.7844 49.8212Z" fill="#424242" stroke="white" stroke-width="4.71281" stroke-miterlimit="10"/>
<path d="M62.4071 52.0239C60.1086 52.0239 57.9318 52.0239 56.2016 52.0239C56.2016 52.0239 54.6895 52.0239 52.4113 52.0239C50.681 52.0239 48.5043 52.0239 46.2057 52.0239C40.8881 52.0239 40.0002 59.3623 40.0002 59.3623V66.995H52.4113H56.2016H68.6126V59.3623C68.6126 59.3673 67.7247 52.0239 62.4071 52.0239Z" fill="#227AEB"/>
<circle cx="55" cy="43" r="7" fill="#227AEB"/>
<circle cx="14" cy="43" r="7" fill="#227AEB"/>
<path d="M23.37 18.7161C23.37 17.8765 23.7125 17.2222 24.3975 16.7531L24.7273 16.5309C25.0402 16.3333 25.2558 16.1728 25.3742 16.0494C25.5011 15.9177 25.5645 15.7572 25.5645 15.5679C25.5645 15.0905 25.1543 14.8519 24.334 14.8519C23.9535 14.8519 23.5603 14.9012 23.1543 15C22.7484 15.0988 22.3636 15.2387 22 15.4198V13.5185C22.778 13.1728 23.649 13 24.6131 13C25.6533 13 26.4778 13.214 27.0867 13.642C27.6956 14.0617 28 14.6461 28 15.3951C28 15.8148 27.9027 16.1564 27.7082 16.4198C27.5137 16.6749 27.1839 16.963 26.7188 17.284C26.4059 17.5062 26.1776 17.679 26.0338 17.8025C25.8901 17.9177 25.7801 18.0494 25.704 18.1975C25.6364 18.3457 25.6025 18.5267 25.6025 18.7407V18.9753H23.37V18.7161ZM24.4736 22C24.1353 22 23.852 21.893 23.6237 21.679C23.4038 21.4568 23.2939 21.1852 23.2939 20.8642C23.2939 20.535 23.4038 20.2634 23.6237 20.0494C23.852 19.8354 24.1353 19.7284 24.4736 19.7284C24.8034 19.7284 25.0825 19.8395 25.3108 20.0617C25.5476 20.2757 25.666 20.5432 25.666 20.8642C25.666 21.1852 25.5476 21.4568 25.3108 21.679C25.0825 21.893 24.8034 22 24.4736 22Z" fill="#F5367B"/>
<line x1="41" y1="8" x2="56" y2="8" stroke="#F5367B" stroke-width="2"/>
<line x1="41" y1="13" x2="56" y2="13" stroke="#F5367B" stroke-width="2"/>
</svg>
