<svg width="62" height="64" viewBox="0 0 62 64" fill="none" xmlns="http://www.w3.org/2000/svg">
<g clip-path="url(#clip0)">
<path d="M35.195 63.7086C51.8903 61.3801 63.5498 45.8651 61.2372 29.0548C58.9247 12.2445 43.5158 0.504651 26.8205 2.83314C10.1252 5.16164 -1.53424 20.6767 0.778324 37.487C3.09088 54.2973 18.4998 66.0371 35.195 63.7086Z" fill="#227AEB"/>
<path d="M61.0387 26.1323H1.08136V61.4593H61.0387V26.1323Z" fill="white"/>
<path d="M61.0388 62.4272H1.0814C0.48062 62.4272 0 61.9433 0 61.3383V26.1323C0 25.5274 0.48062 25.0435 1.0814 25.0435H61.0388C61.6395 25.0435 62.1202 25.5274 62.1202 26.1323V61.4593C62 62.0642 61.6395 62.4272 61.0388 62.4272ZM2.04264 60.3705H59.9574V27.1002H2.04264V60.3705Z" fill="#303C42"/>
<path d="M30.9999 12.2193C34.1189 12.2193 36.6472 9.72767 36.6472 6.65408C36.6472 3.5805 34.1189 1.08887 30.9999 1.08887C27.881 1.08887 25.3527 3.5805 25.3527 6.65408C25.3527 9.72767 27.881 12.2193 30.9999 12.2193Z" fill="white"/>
<path d="M31 13.1872C27.2752 13.1872 24.2713 10.1626 24.2713 6.53309C24.2713 2.9036 27.2752 -0.120972 31 -0.120972C34.7248 -0.120972 37.7287 2.9036 37.7287 6.53309C37.7287 10.2836 34.7248 13.1872 31 13.1872ZM31 2.05672C28.4767 2.05672 26.3139 4.11343 26.3139 6.65408C26.3139 9.19472 28.3566 11.2514 31 11.2514C33.5232 11.2514 35.686 9.19472 35.686 6.65408C35.686 4.11343 33.6434 2.05672 31 2.05672Z" fill="#303C42"/>
<path d="M54.9108 27.1003C54.6705 27.1003 54.4302 26.9793 54.31 26.8583L34.9651 10.5256C34.4845 10.1626 34.4845 9.55772 34.8449 9.07379C35.2054 8.58986 35.8062 8.58986 36.2868 8.95281L55.6317 25.2855C56.1124 25.6485 56.1124 26.2534 55.7519 26.7373C55.5116 26.9793 55.2713 27.1003 54.9108 27.1003Z" fill="#303C42"/>
<path d="M7.08911 27.1003C6.8488 27.1003 6.48834 26.9793 6.24803 26.7373C6.00772 26.2534 6.00772 25.6485 6.48834 25.2855L25.7131 8.95281C26.1938 8.58986 26.7945 8.58986 27.155 9.07379C27.5155 9.55772 27.5155 10.1626 27.0349 10.5256L7.81004 26.8583C7.56973 26.9793 7.32942 27.1003 7.08911 27.1003Z" fill="#303C42"/>
<path d="M22.8294 33.3914H24.031V41.0133H22.5891L18.2635 35.4481V41.0133H16.9418V33.3914H18.2635L22.7092 39.0776V33.3914H22.8294Z" fill="#303C42"/>
<path d="M32.5619 40.0454C31.841 40.7713 30.8798 41.1343 29.6782 41.1343C28.5968 41.1343 27.6356 40.7713 26.7945 40.0454C26.0735 39.3195 25.5929 38.3517 25.5929 37.2628C25.5929 36.174 25.9534 35.2061 26.7945 34.4802C27.5154 33.7543 28.4766 33.3914 29.6782 33.3914C30.7596 33.3914 31.7208 33.7543 32.5619 34.4802C33.2829 35.2061 33.7635 36.174 33.7635 37.2628C33.6433 38.3517 33.2829 39.1985 32.5619 40.0454ZM31.6007 35.2061C31.1201 34.7222 30.3991 34.3592 29.6782 34.3592C28.9573 34.3592 28.2363 34.6012 27.7557 35.2061C27.2751 35.69 27.0348 36.4159 27.0348 37.1418C27.0348 37.8677 27.2751 38.5936 27.7557 39.0776C28.2363 39.5615 28.9573 39.9244 29.6782 39.9244C30.3991 39.9244 31.1201 39.6825 31.6007 39.0776C32.0813 38.5936 32.3216 37.8677 32.3216 37.1418C32.4418 36.4159 32.0813 35.811 31.6007 35.2061Z" fill="#303C42"/>
<path d="M37.6085 38.9566L39.2907 33.3914H40.4923L42.1744 38.9566L44.0969 33.3914H45.4186L42.7752 41.0133H41.4535L39.8915 35.811H39.7713L38.2093 41.0133H36.8876L34.2442 33.3914H35.5659L37.6085 38.9566Z" fill="#303C42"/>
<path d="M11.655 54.2004V46.5784H12.9767V49.845H16.7015V46.5784H18.0232V54.2004H16.7015V51.0548H12.9767V54.2004H11.655Z" fill="#303C42"/>
<path d="M20.0659 46.5784H21.3876V54.2004H20.0659V46.5784Z" fill="#303C42"/>
<path d="M29.5581 48.9981C29.5581 50.2079 28.9574 51.0548 27.876 51.4177L29.9186 54.2004H28.2364L26.4341 51.6597H24.7519V54.2004H23.4302V46.5784H26.314C27.5155 46.5784 28.3566 46.8204 28.8372 47.1833C29.3178 47.5463 29.5581 48.1512 29.5581 48.9981ZM27.876 50.0869C28.1163 49.845 28.2364 49.482 28.2364 48.9981C28.2364 48.5142 28.1163 48.1512 27.876 47.9092C27.6357 47.6673 27.155 47.6673 26.4341 47.6673H24.7519V50.4499H26.314C27.0349 50.4499 27.5155 50.3289 27.876 50.0869Z" fill="#303C42"/>
<path d="M31.3604 46.5784H32.6821V54.2004H31.3604V46.5784Z" fill="#303C42"/>
<path d="M40.4922 46.5784H41.8139V54.2004H40.372L36.0465 48.6351V54.2004H34.7248V46.5784H36.0465L40.4922 52.2646V46.5784Z" fill="#303C42"/>
<path d="M49.1434 50.4499H50.4651V53.1115C49.7441 53.9584 48.6628 54.3214 47.3411 54.3214C46.2597 54.3214 45.2984 53.9584 44.5775 53.2325C43.8566 52.5066 43.4961 51.5387 43.4961 50.4499C43.4961 49.361 43.8566 48.3932 44.6976 47.5463C45.4186 46.8204 46.3798 46.4575 47.4612 46.4575C48.5426 46.4575 49.5038 46.8204 50.2248 47.4253L49.5038 48.3932C49.2635 48.1512 48.9031 47.9093 48.6628 47.9093C48.3023 47.7883 48.062 47.7883 47.5814 47.7883C46.8604 47.7883 46.1395 48.0302 45.6589 48.5142C45.1783 48.9981 44.8178 49.724 44.8178 50.4499C44.8178 51.2968 45.0581 51.9017 45.5387 52.3856C46.0193 52.8696 46.6201 53.1115 47.3411 53.1115C48.062 53.1115 48.6628 52.9905 49.1434 52.6276V50.4499Z" fill="#303C42"/>
</g>
<defs>
<clipPath id="clip0">
<rect width="62" height="64" fill="white"/>
</clipPath>
</defs>
</svg>
