<svg width="64" height="64" viewBox="0 0 64 64" fill="none" xmlns="http://www.w3.org/2000/svg">
<path d="M52.9 33.1C52.9 32.8 52.8 32.6 52.7 32.3C50.5 21.6 41.9 13.3 31 11.5C30.2 11.4 29.4 11.3 28.6 11.2C27.9 11.2 27.3 11.1 26.6 11.1C24.9 11.1 23.3 11.2 21.7 11.5C21.6 11.5 21.5 11.5 21.5 11.5C14.9 12.8 9.1 16.5 5.3 21.6C5 22.2 4.7 22.6 4.4 23C1.6 27.2 0 32.2 0 37.6C0 52.2 11.9 64 26.6 64C41.3 64 53.2 52.2 53.2 37.6C53.3 36 53.1 34.5 52.9 33.1Z" fill="#3199F0"/>
<path d="M25.2 16.2C25.2 17 24 17.1 23.2 17.4C22.6 17.6 22.2 18.1 21.7 18.5C20.7 19.4 19.6 20.3 18.3 20.9C17 21.6 15.3 22 14.3 20.9C17.3 19.7 19.6 17 20.7 13.9C19.2 14.7 18.1 16 16.9 17C15.5 18.2 13.8 19.1 12.4 20.4C11 21.7 9.9 23.4 10 25.2C10 24.1 9.3 23.1 8.4 22.6C7.5 22 6.4 21.8 5.3 21.8H5.2C9.1 16.6 14.8 12.9 21.4 11.7C21.5 11.7 21.6 11.7 21.6 11.7C21.9 13 22.8 14.3 24 15C24.6 15.2 25.2 15.6 25.2 16.2Z" fill="#0D539F"/>
<path d="M31 11.5C31.7 11.9 32.3 12.3 32.7 12.8C32.8 13 32.9 13.1 32.9 13.3C32.8 13.8 32.1 13.7 31.6 13.9C30.9 14.2 31.1 15.4 31.8 15.9C32.5 16.4 33.3 16.4 34.1 16.8C34.4 16.9 34.7 17.2 34.6 17.5C34.6 17.7 34.5 17.8 34.3 17.9C33.4 18.9 32.6 19.9 31.7 20.8C31.5 21 31.2 21.3 30.9 21.4C30.5 21.6 30 21.6 29.6 21.6C27.9 21.6 25.8 21.9 25.3 23.5C25.2 23.9 25.2 24.4 24.9 24.7C24.6 25 24.2 25.1 24 25.4C23.7 25.9 24.1 26.5 24.2 27.1C24.3 28 23.2 28.9 22.3 28.6C22.3 27.6 22.2 26.5 22.2 25.5C22.2 25.3 22.2 25.2 22.1 25C22.2 25 22 25 21.8 24.9C20.8 24.6 19.6 24.4 18.9 25.2C18.2 26 18.6 27.2 19.1 28C19.6 28.9 20.4 29.7 20.4 30.7C20.4 31.2 20.2 31.8 19.7 31.9C19 32 18.5 31.1 18.5 30.4C17.6 32.3 17.2 34.5 17.6 36.6C16.1 37 14.6 37.4 13.1 37.7C12.6 37.8 12 38 11.6 38.4C11.3 38.8 11.2 39.4 11.2 39.9C11.2 41.7 11.7 43.5 12.5 45.1C12.8 45.6 13.2 46.2 13.7 46.6C15.1 47.6 17.1 47.1 18.8 47.6C20.2 48 21.4 49.1 22.1 50.4C22.8 51.7 23.2 53.2 23.5 54.6C23.7 55.3 23.8 56 24.3 56.5C24.9 57.1 25.7 57.2 26.5 57.3C27.8 57.5 29.3 57.7 30.5 57.1C31.5 56.5 32.2 55.4 33.3 55C34 54.7 34.9 54.8 35.6 54.7C36.4 54.5 37.2 53.9 37 53.1C36.8 52.4 35.9 51.9 36.1 51.1C36.3 50.6 36.9 50.5 37.3 50.3C39.5 49.6 40.7 46.7 39.6 44.6C39.4 44.3 39.2 44 39.2 43.6C39.1 42.5 40.7 42.1 41.4 41.3C42.1 40.6 42.1 39.4 42.2 38.4C42.3 37.4 42.7 36.2 43.7 36C44.7 35.7 45.6 36.4 46.2 37.2C46.8 38 47.2 39 48.1 39.5C48.1 37.8 48.1 36 48.2 34.2C48.2 33.6 48.2 32.9 48.6 32.4C49.3 31.6 50.6 31.8 51.6 32C51.9 32.1 52.3 32.1 52.6 32.1C50.5 21.6 41.9 13.3 31 11.5ZM36.3 28.7H36.4C36.7 28.7 37 28.7 37.3 28.7C37.1 29.3 37.3 30 37.8 30.5C38 30.7 38.2 30.9 38.4 31.1C38.9 31.6 39 32.4 38.8 33.1C38.2 33.1 37.6 33.2 37.1 33C36.5 32.9 36 32.5 35.8 32C35.7 31.7 35.6 31.3 35.6 31C35.5 30.1 35.5 29.1 36.3 28.7ZM28.4 37.8C27.5 37.7 26.8 37.1 26 36.7C24.9 36.1 23.6 35.8 22.3 35.8C21.8 35.8 21.4 35.8 21 35.7C20.6 35.6 20.1 35.3 20 34.9C19.8 34.4 20.2 33.8 20.7 33.5C21.2 33.2 21.7 33 22.2 32.7L22.3 31.9C23.3 32.9 24.6 33.7 25.9 34.2C26.6 34.4 27.2 34.6 27.9 34.7C28.6 34.8 29.4 34.7 30.1 34.7C30.3 34.7 30.6 34.7 30.8 34.6C31.3 34.6 31.8 34.5 32.3 34.5C32.9 34.5 33.5 34.4 34 34C34.2 34.7 33.8 35.5 33.3 36C32.8 36.5 32.1 36.8 31.4 37.1C30.5 37.5 29.5 37.9 28.4 37.8ZM38.7 42.9C38.7 43.1 38.6 43.2 38.4 43.3C38.3 43.4 38.2 43.4 38 43.4C36.9 43.5 35.6 43.7 34.7 43C34.3 42.7 34 42.2 33.8 41.8C33.4 41.2 33.1 40.6 32.8 40C32.4 39.4 32.1 38.7 32.2 38.1C32.7 38 33.3 38.1 33.8 38.2L34 38.4C33.8 38.8 34 39.3 34.3 39.6C34.6 39.9 35.1 40.1 35.5 40.3C35.9 40.4 36.2 40.6 36.6 40.7C37.1 40.9 37.6 41.1 38.1 41.5C38.5 41.8 38.8 42.4 38.7 42.9ZM40.7 37.4C40.6 37.5 40.5 37.6 40.3 37.6C39.2 37.9 38 37.1 37.9 36L38.1 35.9C38.9 35.9 39.7 35.9 40.4 35.9C40.5 35.9 40.7 35.9 40.8 36C40.9 36.1 40.9 36.3 40.9 36.4C40.9 36.7 40.9 37.1 40.7 37.4Z" fill="#0D539F"/>
<path d="M49.1 0C40.8 0 34.2 6.6 34.2 14.8C34.2 23 49.1 43.5 49.1 43.5C49.1 43.5 64 23 64 14.8C64 6.6 57.3 0 49.1 0Z" fill="#FCEA4A"/>
<path d="M49.1 21.5C45.4 21.5 42.3 18.5 42.3 14.8C42.3 11.1 45.3 8.09998 49.1 8.09998C52.8 8.09998 55.9 11.1 55.9 14.8C55.8 18.5 52.8 21.5 49.1 21.5Z" fill="white"/>
</svg>
